<svg version="1.1" xmlns="http://www.w3.org/2000/svg" xmlns:xlink="http://www.w3.org/1999/xlink" width="556.7978515625" height="195"><defs/><g><g transform="translate(-30,-158) scale(1,1)"><rect fill="#C0C0C0" stroke="none" x="47" y="175" width="239.13427734375" height="175" opacity="0.2"/></g><g transform="translate(-30,-158) scale(1,1)"><rect fill="#ffffff" stroke="none" x="40" y="168" width="239.13427734375" height="175"/></g><g transform="translate(-30,-158) scale(1,1)"><path fill="none" stroke="#000000" d="M 40 168 L 279.13427734375 168 L 279.13427734375 343 L 40 343 L 40 168 Z Z" stroke-miterlimit="10"/></g><g transform="translate(-30,-158) scale(1,1)"><path fill="none" stroke="#000000" d="M 40 193 L 279.13427734375 193" stroke-miterlimit="10"/></g><g transform="translate(-30,-158) scale(1,1)"><path fill="none" stroke="#000000" d="M 40 246 L 279.13427734375 246" stroke-miterlimit="10"/></g><g transform="translate(-30,-158) scale(1,1)"><g><path fill="none" stroke="none"/><text fill="#000000" stroke="none" font-family="Arial" font-size="13px" font-style="normal" font-weight="bold" text-decoration="none" x="150.178955078125" y="187.5">CC</text></g></g><g transform="translate(-30,-158) scale(1,1)"><g><path fill="none" stroke="none"/><text fill="#000000" stroke="none" font-family="Arial" font-size="13px" font-style="normal" font-weight="normal" text-decoration="none" x="45" y="210.5">-nomeCliente: String</text></g></g><g transform="translate(-30,-158) scale(1,1)"><g><path fill="none" stroke="none"/><text fill="#000000" stroke="none" font-family="Arial" font-size="13px" font-style="normal" font-weight="normal" text-decoration="none" x="45" y="225.5">-nConto: integer</text></g></g><g transform="translate(-30,-158) scale(1,1)"><g><path fill="none" stroke="none"/><text fill="#000000" stroke="none" font-family="Arial" font-size="13px" font-style="normal" font-weight="normal" text-decoration="none" x="45" y="240.5">-saldo: float</text></g></g><g transform="translate(-30,-158) scale(1,1)"><g><path fill="none" stroke="none"/><text fill="#000000" stroke="none" font-family="Arial" font-size="13px" font-style="normal" font-weight="normal" text-decoration="none" x="45" y="263.5">+getN_C(): String</text></g></g><g transform="translate(-30,-158) scale(1,1)"><g><path fill="none" stroke="none"/><text fill="#000000" stroke="none" font-family="Arial" font-size="13px" font-style="normal" font-weight="normal" text-decoration="none" x="45" y="278.5">+getNconto(): integer</text></g></g><g transform="translate(-30,-158) scale(1,1)"><g><path fill="none" stroke="none"/><text fill="#000000" stroke="none" font-family="Arial" font-size="13px" font-style="normal" font-weight="normal" text-decoration="none" x="45" y="293.5">+getSaldo(): float</text></g></g><g transform="translate(-30,-158) scale(1,1)"><g><path fill="none" stroke="none"/><text fill="#000000" stroke="none" font-family="Arial" font-size="13px" font-style="normal" font-weight="normal" text-decoration="none" x="45" y="308.5">+prelievo(saldo: float): boolean</text></g></g><g transform="translate(-30,-158) scale(1,1)"><g><path fill="none" stroke="none"/><text fill="#000000" stroke="none" font-family="Arial" font-size="13px" font-style="normal" font-weight="normal" text-decoration="none" x="45" y="323.5">+versamento(saldo: float): void</text></g></g><g transform="translate(-30,-158) scale(1,1)"><g><path fill="none" stroke="none"/><text fill="#000000" stroke="none" font-family="Arial" font-size="13px" font-style="normal" font-weight="normal" text-decoration="none" x="45" y="338.5">+CC(nomeCliente: String, nConto: float)</text></g></g><g transform="translate(-30,-158) scale(1,1)"><path fill="#ffffff" stroke="none" d="M 328 240 L 565.7978515625 240 L 575.7978515625 250 L 575.7978515625 263 L 328 263 L 328 240"/></g><g transform="translate(-30,-158) scale(1,1)"><path fill="none" stroke="#000000" d="M 328 240 L 565.7978515625 240 L 575.7978515625 250 L 575.7978515625 263 L 328 263 L 328 240 L 328 240" stroke-miterlimit="10"/></g><g transform="translate(-30,-158) scale(1,1)"><path fill="none" stroke="#000000" d="M 565.7978515625 240 L 565.7978515625 250 L 575.7978515625 250 L 565.7978515625 240" stroke-miterlimit="10"/></g><g transform="translate(-30,-158) scale(1,1)"><g><path fill="none" stroke="none"/><text fill="#000000" stroke="none" font-family="Arial" font-size="13px" font-style="normal" font-weight="normal" text-decoration="none" x="333" y="258">gestione semplice di un conto corrente. </text></g></g><g transform="translate(-30,-158) scale(1,1)"><path fill="none" stroke="#000000" d="M 280 254 L 327 253" stroke-miterlimit="10" stroke-dasharray="3"/></g></g></svg>